<?xml version='1.0' encoding='utf-8'?>
<score-partwise version="3.1"><part-list><score-part id="P1"><part-name>Guitar</part-name></score-part><score-part id="P2"><part-name>Violin I</part-name></score-part><score-part id="P3"><part-name>Violin II</part-name></score-part><score-part id="P4"><part-name>Viola</part-name></score-part><score-part id="P5"><part-name>Cello</part-name></score-part></part-list><part id="P1"><measure number="1"><attributes><divisions>1</divisions><key><fifths>0</fifths></key><time><beats>4</beats><beat-type>4</beat-type></time><clef><sign>G</sign><line>2</line></clef></attributes><note><pitch><step>D</step><octave>4</octave></pitch><duration>1</duration><voice>1</voice><type>quarter</type></note><note><pitch><step>F</step><octave>4</octave></pitch><duration>1</duration><voice>1</voice><type>quarter</type></note><note><pitch><step>A</step><octave>4</octave></pitch><duration>1</duration><voice>1</voice><type>quarter</type></note><note><rest /><duration>1</duration><voice>1</voice><type>quarter</type></note></measure><measure number="2"><note><pitch><step>E</step><octave>4</octave></pitch><duration>1</duration><voice>1</voice><type>quarter</type></note><note><pitch><step>G</step><octave>4</octave></pitch><duration>1</duration><voice>1</voice><type>quarter</type></note><note><pitch><step>B</step><octave>4</octave></pitch><duration>1</duration><voice>1</voice><type>quarter</type></note><note><rest /><duration>1</duration><voice>1</voice><type>quarter</type></note></measure><measure number="3"><note><pitch><step>F</step><octave>4</octave></pitch><duration>1</duration><voice>1</voice><type>quarter</type></note><note><pitch><step>A</step><octave>4</octave></pitch><duration>1</duration><voice>1</voice><type>quarter</type></note><note><rest /><duration>1</duration><voice>1</voice><type>quarter</type></note><note><rest /><duration>1</duration><voice>1</voice><type>quarter</type></note></measure><measure number="4"><note><pitch><step>D</step><octave>4</octave></pitch><duration>1</duration><voice>1</voice><type>quarter</type></note><note><pitch><step>A</step><octave>4</octave></pitch><duration>1</duration><voice>1</voice><type>quarter</type></note><note><pitch><step>C</step><octave>5</octave></pitch><duration>1</duration><voice>1</voice><type>quarter</type></note><note><rest /><duration>1</duration><voice>1</voice><type>quarter</type></note></measure><measure number="5"><note><pitch><step>G</step><octave>4</octave></pitch><duration>1</duration><voice>1</voice><type>quarter</type></note><note><pitch><step>B</step><octave>4</octave></pitch><duration>1</duration><voice>1</voice><type>quarter</type></note><note><rest /><duration>1</duration><voice>1</voice><type>quarter</type></note><note><rest /><duration>1</duration><voice>1</voice><type>quarter</type></note></measure><measure number="6"><note><pitch><step>A</step><octave>4</octave></pitch><duration>1</duration><voice>1</voice><type>quarter</type></note><note><pitch><step>C</step><octave>5</octave></pitch><duration>1</duration><voice>1</voice><type>quarter</type></note><note><pitch><step>E</step><octave>5</octave></pitch><duration>1</duration><voice>1</voice><type>quarter</type></note><note><rest /><duration>1</duration><voice>1</voice><type>quarter</type></note></measure><measure number="7"><note><pitch><step>D</step><octave>4</octave></pitch><duration>1</duration><voice>1</voice><type>quarter</type></note><note><pitch><step>F</step><octave>4</octave></pitch><duration>1</duration><voice>1</voice><type>quarter</type></note><note><rest /><duration>1</duration><voice>1</voice><type>quarter</type></note><note><rest /><duration>1</duration><voice>1</voice><type>quarter</type></note></measure><measure number="8"><note><pitch><step>E</step><octave>4</octave></pitch><duration>1</duration><voice>1</voice><type>quarter</type></note><note><pitch><step>G</step><octave>4</octave></pitch><duration>1</duration><voice>1</voice><type>quarter</type></note><note><pitch><step>B</step><octave>4</octave></pitch><duration>1</duration><voice>1</voice><type>quarter</type></note><note><rest /><duration>1</duration><voice>1</voice><type>quarter</type></note></measure></part><part id="P2"><measure number="1"><attributes><divisions>1</divisions><key><fifths>0</fifths></key><time><beats>4</beats><beat-type>4</beat-type></time><clef><sign>G</sign><line>2</line></clef></attributes><note><pitch><step>D</step><octave>4</octave></pitch><duration>1</duration><voice>1</voice><type>quarter</type></note><note><rest /><duration>1</duration><voice>1</voice><type>quarter</type></note><note><rest /><duration>1</duration><voice>1</voice><type>quarter</type></note><note><rest /><duration>1</duration><voice>1</voice><type>quarter</type></note></measure><measure number="2"><note><pitch><step>D</step><octave>4</octave></pitch><duration>1</duration><voice>1</voice><type>quarter</type></note><note><rest /><duration>1</duration><voice>1</voice><type>quarter</type></note><note><rest /><duration>1</duration><voice>1</voice><type>quarter</type></note><note><rest /><duration>1</duration><voice>1</voice><type>quarter</type></note></measure><measure number="3"><note><pitch><step>D</step><octave>4</octave></pitch><duration>1</duration><voice>1</voice><type>quarter</type></note><note><rest /><duration>1</duration><voice>1</voice><type>quarter</type></note><note><rest /><duration>1</duration><voice>1</voice><type>quarter</type></note><note><rest /><duration>1</duration><voice>1</voice><type>quarter</type></note></measure><measure number="4"><note><pitch><step>D</step><octave>4</octave></pitch><duration>1</duration><voice>1</voice><type>quarter</type></note><note><rest /><duration>1</duration><voice>1</voice><type>quarter</type></note><note><rest /><duration>1</duration><voice>1</voice><type>quarter</type></note><note><rest /><duration>1</duration><voice>1</voice><type>quarter</type></note></measure><measure number="5"><note><pitch><step>D</step><octave>4</octave></pitch><duration>1</duration><voice>1</voice><type>quarter</type></note><note><rest /><duration>1</duration><voice>1</voice><type>quarter</type></note><note><rest /><duration>1</duration><voice>1</voice><type>quarter</type></note><note><rest /><duration>1</duration><voice>1</voice><type>quarter</type></note></measure><measure number="6"><note><pitch><step>D</step><octave>4</octave></pitch><duration>1</duration><voice>1</voice><type>quarter</type></note><note><rest /><duration>1</duration><voice>1</voice><type>quarter</type></note><note><rest /><duration>1</duration><voice>1</voice><type>quarter</type></note><note><rest /><duration>1</duration><voice>1</voice><type>quarter</type></note></measure><measure number="7"><note><pitch><step>D</step><octave>4</octave></pitch><duration>1</duration><voice>1</voice><type>quarter</type></note><note><rest /><duration>1</duration><voice>1</voice><type>quarter</type></note><note><rest /><duration>1</duration><voice>1</voice><type>quarter</type></note><note><rest /><duration>1</duration><voice>1</voice><type>quarter</type></note></measure><measure number="8"><note><pitch><step>D</step><octave>4</octave></pitch><duration>1</duration><voice>1</voice><type>quarter</type></note><note><rest /><duration>1</duration><voice>1</voice><type>quarter</type></note><note><rest /><duration>1</duration><voice>1</voice><type>quarter</type></note><note><rest /><duration>1</duration><voice>1</voice><type>quarter</type></note></measure></part><part id="P3"><measure number="1"><attributes><divisions>1</divisions><key><fifths>0</fifths></key><time><beats>4</beats><beat-type>4</beat-type></time><clef><sign>G</sign><line>2</line></clef></attributes><note><pitch><step>D</step><octave>4</octave></pitch><duration>1</duration><voice>1</voice><type>quarter</type></note><note><rest /><duration>1</duration><voice>1</voice><type>quarter</type></note><note><rest /><duration>1</duration><voice>1</voice><type>quarter</type></note><note><rest /><duration>1</duration><voice>1</voice><type>quarter</type></note></measure><measure number="2"><note><pitch><step>D</step><octave>4</octave></pitch><duration>1</duration><voice>1</voice><type>quarter</type></note><note><rest /><duration>1</duration><voice>1</voice><type>quarter</type></note><note><rest /><duration>1</duration><voice>1</voice><type>quarter</type></note><note><rest /><duration>1</duration><voice>1</voice><type>quarter</type></note></measure><measure number="3"><note><pitch><step>D</step><octave>4</octave></pitch><duration>1</duration><voice>1</voice><type>quarter</type></note><note><rest /><duration>1</duration><voice>1</voice><type>quarter</type></note><note><rest /><duration>1</duration><voice>1</voice><type>quarter</type></note><note><rest /><duration>1</duration><voice>1</voice><type>quarter</type></note></measure><measure number="4"><note><pitch><step>D</step><octave>4</octave></pitch><duration>1</duration><voice>1</voice><type>quarter</type></note><note><rest /><duration>1</duration><voice>1</voice><type>quarter</type></note><note><rest /><duration>1</duration><voice>1</voice><type>quarter</type></note><note><rest /><duration>1</duration><voice>1</voice><type>quarter</type></note></measure><measure number="5"><note><pitch><step>D</step><octave>4</octave></pitch><duration>1</duration><voice>1</voice><type>quarter</type></note><note><rest /><duration>1</duration><voice>1</voice><type>quarter</type></note><note><rest /><duration>1</duration><voice>1</voice><type>quarter</type></note><note><rest /><duration>1</duration><voice>1</voice><type>quarter</type></note></measure><measure number="6"><note><pitch><step>D</step><octave>4</octave></pitch><duration>1</duration><voice>1</voice><type>quarter</type></note><note><rest /><duration>1</duration><voice>1</voice><type>quarter</type></note><note><rest /><duration>1</duration><voice>1</voice><type>quarter</type></note><note><rest /><duration>1</duration><voice>1</voice><type>quarter</type></note></measure><measure number="7"><note><pitch><step>D</step><octave>4</octave></pitch><duration>1</duration><voice>1</voice><type>quarter</type></note><note><rest /><duration>1</duration><voice>1</voice><type>quarter</type></note><note><rest /><duration>1</duration><voice>1</voice><type>quarter</type></note><note><rest /><duration>1</duration><voice>1</voice><type>quarter</type></note></measure><measure number="8"><note><pitch><step>D</step><octave>4</octave></pitch><duration>1</duration><voice>1</voice><type>quarter</type></note><note><rest /><duration>1</duration><voice>1</voice><type>quarter</type></note><note><rest /><duration>1</duration><voice>1</voice><type>quarter</type></note><note><rest /><duration>1</duration><voice>1</voice><type>quarter</type></note></measure></part><part id="P4"><measure number="1"><attributes><divisions>1</divisions><key><fifths>0</fifths></key><time><beats>4</beats><beat-type>4</beat-type></time><clef><sign>G</sign><line>2</line></clef></attributes><note><pitch><step>D</step><octave>4</octave></pitch><duration>1</duration><voice>1</voice><type>quarter</type></note><note><rest /><duration>1</duration><voice>1</voice><type>quarter</type></note><note><rest /><duration>1</duration><voice>1</voice><type>quarter</type></note><note><rest /><duration>1</duration><voice>1</voice><type>quarter</type></note></measure><measure number="2"><note><pitch><step>D</step><octave>4</octave></pitch><duration>1</duration><voice>1</voice><type>quarter</type></note><note><rest /><duration>1</duration><voice>1</voice><type>quarter</type></note><note><rest /><duration>1</duration><voice>1</voice><type>quarter</type></note><note><rest /><duration>1</duration><voice>1</voice><type>quarter</type></note></measure><measure number="3"><note><pitch><step>D</step><octave>4</octave></pitch><duration>1</duration><voice>1</voice><type>quarter</type></note><note><rest /><duration>1</duration><voice>1</voice><type>quarter</type></note><note><rest /><duration>1</duration><voice>1</voice><type>quarter</type></note><note><rest /><duration>1</duration><voice>1</voice><type>quarter</type></note></measure><measure number="4"><note><pitch><step>D</step><octave>4</octave></pitch><duration>1</duration><voice>1</voice><type>quarter</type></note><note><rest /><duration>1</duration><voice>1</voice><type>quarter</type></note><note><rest /><duration>1</duration><voice>1</voice><type>quarter</type></note><note><rest /><duration>1</duration><voice>1</voice><type>quarter</type></note></measure><measure number="5"><note><pitch><step>D</step><octave>4</octave></pitch><duration>1</duration><voice>1</voice><type>quarter</type></note><note><rest /><duration>1</duration><voice>1</voice><type>quarter</type></note><note><rest /><duration>1</duration><voice>1</voice><type>quarter</type></note><note><rest /><duration>1</duration><voice>1</voice><type>quarter</type></note></measure><measure number="6"><note><pitch><step>D</step><octave>4</octave></pitch><duration>1</duration><voice>1</voice><type>quarter</type></note><note><rest /><duration>1</duration><voice>1</voice><type>quarter</type></note><note><rest /><duration>1</duration><voice>1</voice><type>quarter</type></note><note><rest /><duration>1</duration><voice>1</voice><type>quarter</type></note></measure><measure number="7"><note><pitch><step>D</step><octave>4</octave></pitch><duration>1</duration><voice>1</voice><type>quarter</type></note><note><rest /><duration>1</duration><voice>1</voice><type>quarter</type></note><note><rest /><duration>1</duration><voice>1</voice><type>quarter</type></note><note><rest /><duration>1</duration><voice>1</voice><type>quarter</type></note></measure><measure number="8"><note><pitch><step>D</step><octave>4</octave></pitch><duration>1</duration><voice>1</voice><type>quarter</type></note><note><rest /><duration>1</duration><voice>1</voice><type>quarter</type></note><note><rest /><duration>1</duration><voice>1</voice><type>quarter</type></note><note><rest /><duration>1</duration><voice>1</voice><type>quarter</type></note></measure></part><part id="P5"><measure number="1"><attributes><divisions>1</divisions><key><fifths>0</fifths></key><time><beats>4</beats><beat-type>4</beat-type></time><clef><sign>G</sign><line>2</line></clef></attributes><note><pitch><step>D</step><octave>4</octave></pitch><duration>1</duration><voice>1</voice><type>quarter</type></note><note><rest /><duration>1</duration><voice>1</voice><type>quarter</type></note><note><rest /><duration>1</duration><voice>1</voice><type>quarter</type></note><note><rest /><duration>1</duration><voice>1</voice><type>quarter</type></note></measure><measure number="2"><note><pitch><step>D</step><octave>4</octave></pitch><duration>1</duration><voice>1</voice><type>quarter</type></note><note><rest /><duration>1</duration><voice>1</voice><type>quarter</type></note><note><rest /><duration>1</duration><voice>1</voice><type>quarter</type></note><note><rest /><duration>1</duration><voice>1</voice><type>quarter</type></note></measure><measure number="3"><note><pitch><step>D</step><octave>4</octave></pitch><duration>1</duration><voice>1</voice><type>quarter</type></note><note><rest /><duration>1</duration><voice>1</voice><type>quarter</type></note><note><rest /><duration>1</duration><voice>1</voice><type>quarter</type></note><note><rest /><duration>1</duration><voice>1</voice><type>quarter</type></note></measure><measure number="4"><note><pitch><step>D</step><octave>4</octave></pitch><duration>1</duration><voice>1</voice><type>quarter</type></note><note><rest /><duration>1</duration><voice>1</voice><type>quarter</type></note><note><rest /><duration>1</duration><voice>1</voice><type>quarter</type></note><note><rest /><duration>1</duration><voice>1</voice><type>quarter</type></note></measure><measure number="5"><note><pitch><step>D</step><octave>4</octave></pitch><duration>1</duration><voice>1</voice><type>quarter</type></note><note><rest /><duration>1</duration><voice>1</voice><type>quarter</type></note><note><rest /><duration>1</duration><voice>1</voice><type>quarter</type></note><note><rest /><duration>1</duration><voice>1</voice><type>quarter</type></note></measure><measure number="6"><note><pitch><step>D</step><octave>4</octave></pitch><duration>1</duration><voice>1</voice><type>quarter</type></note><note><rest /><duration>1</duration><voice>1</voice><type>quarter</type></note><note><rest /><duration>1</duration><voice>1</voice><type>quarter</type></note><note><rest /><duration>1</duration><voice>1</voice><type>quarter</type></note></measure><measure number="7"><note><pitch><step>D</step><octave>4</octave></pitch><duration>1</duration><voice>1</voice><type>quarter</type></note><note><rest /><duration>1</duration><voice>1</voice><type>quarter</type></note><note><rest /><duration>1</duration><voice>1</voice><type>quarter</type></note><note><rest /><duration>1</duration><voice>1</voice><type>quarter</type></note></measure><measure number="8"><note><pitch><step>D</step><octave>4</octave></pitch><duration>1</duration><voice>1</voice><type>quarter</type></note><note><rest /><duration>1</duration><voice>1</voice><type>quarter</type></note><note><rest /><duration>1</duration><voice>1</voice><type>quarter</type></note><note><rest /><duration>1</duration><voice>1</voice><type>quarter</type></note></measure></part></score-partwise>